<svg xmlns:sketch="http://www.bohemiancoding.com/sketch/ns" xmlns="http://www.w3.org/2000/svg" xmlns:xlink="http://www.w3.org/1999/xlink" fill="#ff6e96" version="1.1" x="0px" y="0px" width="64" height="64" viewBox="-255 347 100 125" style="enable-background:new -255 347 100 100;" xml:space="preserve"><g><path d="M-205,352c-24.9,0-45,20.1-45,45c0,24.9,20.1,45,45,45c24.9,0,45-20.1,45-45C-160,372.1-180.1,352-205,352z M-205,438   c-22.6,0-41-18.4-41-41s18.4-41,41-41s41,18.4,41,41S-182.4,438-205,438z"/><path d="M-203.6,385.6c-0.8-0.8-2-0.8-2.8,0l-13,13c-0.8,0.8-0.8,2,0,2.8c0.8,0.8,2,0.8,2.8,0l9.6-9.6v34.7c0,1.1,0.9,2,2,2   s2-0.9,2-2v-34.7l9.6,9.6c0.8,0.8,2,0.8,2.8,0c0.8-0.8,0.8-2,0-2.8L-203.6,385.6z"/><path d="M-190,375h-30c-1.1,0-2,0.9-2,2s0.9,2,2,2h30c1.1,0,2-0.9,2-2S-188.9,375-190,375z"/></g></svg>
